<mxfile host="app.diagrams.net" modified="2021-11-02T12:58:32.851Z" agent="5.0 (Windows NT 10.0; Win64; x64) AppleWebKit/537.36 (KHTML, like Gecko) Chrome/95.0.4638.69 Safari/537.36" etag="jOo06sCK3178iTgvZdXS" version="15.6.3" type="github">
  <diagram id="prtHgNgQTEPvFCAcTncT" name="Page-1">
    <mxGraphModel dx="1422" dy="2051" grid="1" gridSize="10" guides="1" tooltips="1" connect="1" arrows="1" fold="1" page="1" pageScale="1" pageWidth="827" pageHeight="1169" math="0" shadow="0">
      <root>
        <mxCell id="0" />
        <mxCell id="1" parent="0" />
        <mxCell id="gjC-1clqxjPvvHSm9kyU-22" value="" style="rounded=0;whiteSpace=wrap;html=1;" vertex="1" parent="1">
          <mxGeometry x="470" y="-50" width="590" height="610" as="geometry" />
        </mxCell>
        <mxCell id="gjC-1clqxjPvvHSm9kyU-21" value="" style="rounded=0;whiteSpace=wrap;html=1;" vertex="1" parent="1">
          <mxGeometry x="30" y="-50" width="380" height="610" as="geometry" />
        </mxCell>
        <mxCell id="gjC-1clqxjPvvHSm9kyU-18" style="edgeStyle=orthogonalEdgeStyle;rounded=0;orthogonalLoop=1;jettySize=auto;html=1;exitX=0.5;exitY=0;exitDx=0;exitDy=0;entryX=0.5;entryY=1;entryDx=0;entryDy=0;" edge="1" parent="1" source="gjC-1clqxjPvvHSm9kyU-8" target="gjC-1clqxjPvvHSm9kyU-7">
          <mxGeometry relative="1" as="geometry" />
        </mxCell>
        <mxCell id="gjC-1clqxjPvvHSm9kyU-8" value="" style="rounded=0;whiteSpace=wrap;html=1;fillColor=#fad7ac;strokeColor=none;" vertex="1" parent="1">
          <mxGeometry x="240" y="90" width="165" height="460" as="geometry" />
        </mxCell>
        <mxCell id="gjC-1clqxjPvvHSm9kyU-9" value="" style="rounded=0;whiteSpace=wrap;html=1;fillColor=#bac8d3;strokeColor=none;" vertex="1" parent="1">
          <mxGeometry x="40" y="90" width="170" height="460" as="geometry" />
        </mxCell>
        <mxCell id="gjC-1clqxjPvvHSm9kyU-10" value="Regulation, Certification, Authorities" style="rounded=1;whiteSpace=wrap;html=1;arcSize=50;fillColor=none;strokeColor=none;fontStyle=1;fontSize=15;" vertex="1" parent="1">
          <mxGeometry x="65" y="120" width="120" height="50" as="geometry" />
        </mxCell>
        <mxCell id="gjC-1clqxjPvvHSm9kyU-11" value="Consumer market&lt;br&gt;roles" style="rounded=1;whiteSpace=wrap;html=1;arcSize=50;fillColor=none;strokeColor=none;fontStyle=1;fontSize=15;" vertex="1" parent="1">
          <mxGeometry x="260" y="120" width="120" height="50" as="geometry" />
        </mxCell>
        <mxCell id="2TjgyCzb8Htl5xwf5OyU-54" value="" style="rounded=0;whiteSpace=wrap;html=1;strokeColor=none;fillColor=#b1ddf0;" parent="1" vertex="1">
          <mxGeometry x="680" y="90" width="170" height="150" as="geometry" />
        </mxCell>
        <mxCell id="2TjgyCzb8Htl5xwf5OyU-53" value="" style="rounded=0;whiteSpace=wrap;html=1;fillColor=#fad7ac;strokeColor=none;" parent="1" vertex="1">
          <mxGeometry x="880" y="90" width="165" height="460" as="geometry" />
        </mxCell>
        <mxCell id="25NLpgs0V1rmSh0dHToZ-5" style="edgeStyle=orthogonalEdgeStyle;rounded=0;orthogonalLoop=1;jettySize=auto;html=1;exitX=0.5;exitY=1;exitDx=0;exitDy=0;entryX=0;entryY=0.5;entryDx=0;entryDy=0;" parent="1" source="O-F3Ail7RcBTmuWhiVfL-6" target="O-F3Ail7RcBTmuWhiVfL-30" edge="1">
          <mxGeometry relative="1" as="geometry" />
        </mxCell>
        <mxCell id="25NLpgs0V1rmSh0dHToZ-6" style="edgeStyle=orthogonalEdgeStyle;rounded=0;orthogonalLoop=1;jettySize=auto;html=1;exitX=0.617;exitY=1;exitDx=0;exitDy=0;entryX=0;entryY=0.5;entryDx=0;entryDy=0;exitPerimeter=0;" parent="1" source="O-F3Ail7RcBTmuWhiVfL-6" target="O-F3Ail7RcBTmuWhiVfL-29" edge="1">
          <mxGeometry relative="1" as="geometry" />
        </mxCell>
        <mxCell id="2TjgyCzb8Htl5xwf5OyU-52" value="" style="rounded=0;whiteSpace=wrap;html=1;fillColor=#bac8d3;strokeColor=none;" parent="1" vertex="1">
          <mxGeometry x="480" y="90" width="170" height="460" as="geometry" />
        </mxCell>
        <mxCell id="25NLpgs0V1rmSh0dHToZ-11" style="edgeStyle=orthogonalEdgeStyle;rounded=0;orthogonalLoop=1;jettySize=auto;html=1;exitX=0.75;exitY=1;exitDx=0;exitDy=0;entryX=0;entryY=0.5;entryDx=0;entryDy=0;" parent="1" source="O-F3Ail7RcBTmuWhiVfL-6" target="O-F3Ail7RcBTmuWhiVfL-28" edge="1">
          <mxGeometry relative="1" as="geometry" />
        </mxCell>
        <mxCell id="25NLpgs0V1rmSh0dHToZ-12" style="edgeStyle=orthogonalEdgeStyle;rounded=0;orthogonalLoop=1;jettySize=auto;html=1;exitX=0.925;exitY=0.983;exitDx=0;exitDy=0;entryX=0;entryY=0.75;entryDx=0;entryDy=0;exitPerimeter=0;" parent="1" source="O-F3Ail7RcBTmuWhiVfL-6" target="O-F3Ail7RcBTmuWhiVfL-31" edge="1">
          <mxGeometry relative="1" as="geometry">
            <Array as="points">
              <mxPoint x="816" y="220" />
              <mxPoint x="810" y="220" />
              <mxPoint x="810" y="245" />
            </Array>
          </mxGeometry>
        </mxCell>
        <mxCell id="O-F3Ail7RcBTmuWhiVfL-6" value="FireBIM Web service" style="rounded=1;whiteSpace=wrap;html=1;fillColor=#dae8fc;strokeColor=#6c8ebf;strokeWidth=3;" parent="1" vertex="1">
          <mxGeometry x="705" y="160" width="120" height="60" as="geometry" />
        </mxCell>
        <mxCell id="O-F3Ail7RcBTmuWhiVfL-19" value="Software" style="rounded=1;whiteSpace=wrap;html=1;arcSize=50;fillColor=none;strokeColor=none;fontStyle=1;fontSize=15;" parent="1" vertex="1">
          <mxGeometry x="705" y="120" width="120" height="30" as="geometry" />
        </mxCell>
        <mxCell id="O-F3Ail7RcBTmuWhiVfL-22" value="Regulation, Certification, Authorities" style="rounded=1;whiteSpace=wrap;html=1;arcSize=50;fillColor=none;strokeColor=none;fontStyle=1;fontSize=15;" parent="1" vertex="1">
          <mxGeometry x="505" y="120" width="120" height="50" as="geometry" />
        </mxCell>
        <mxCell id="25NLpgs0V1rmSh0dHToZ-4" style="edgeStyle=orthogonalEdgeStyle;rounded=0;orthogonalLoop=1;jettySize=auto;html=1;exitX=1;exitY=0.5;exitDx=0;exitDy=0;entryX=0.133;entryY=1;entryDx=0;entryDy=0;entryPerimeter=0;" parent="1" source="O-F3Ail7RcBTmuWhiVfL-23" target="O-F3Ail7RcBTmuWhiVfL-6" edge="1">
          <mxGeometry relative="1" as="geometry" />
        </mxCell>
        <mxCell id="O-F3Ail7RcBTmuWhiVfL-23" value="International compendium of fire regulations" style="rounded=1;whiteSpace=wrap;html=1;fillColor=#d5e8d4;strokeColor=#82b366;strokeWidth=3;" parent="1" vertex="1">
          <mxGeometry x="505" y="290" width="120" height="60" as="geometry" />
        </mxCell>
        <mxCell id="2TjgyCzb8Htl5xwf5OyU-27" style="edgeStyle=orthogonalEdgeStyle;rounded=0;orthogonalLoop=1;jettySize=auto;html=1;exitX=0.5;exitY=1;exitDx=0;exitDy=0;entryX=0.5;entryY=0;entryDx=0;entryDy=0;" parent="1" source="O-F3Ail7RcBTmuWhiVfL-24" target="O-F3Ail7RcBTmuWhiVfL-25" edge="1">
          <mxGeometry relative="1" as="geometry" />
        </mxCell>
        <mxCell id="O-F3Ail7RcBTmuWhiVfL-24" value="National BIM standards" style="rounded=1;whiteSpace=wrap;html=1;fillColor=#d5e8d4;strokeColor=#82b366;strokeWidth=3;" parent="1" vertex="1">
          <mxGeometry x="505" y="380" width="120" height="60" as="geometry" />
        </mxCell>
        <mxCell id="25NLpgs0V1rmSh0dHToZ-3" style="edgeStyle=orthogonalEdgeStyle;rounded=0;orthogonalLoop=1;jettySize=auto;html=1;exitX=1;exitY=0.5;exitDx=0;exitDy=0;entryX=0.333;entryY=1.017;entryDx=0;entryDy=0;entryPerimeter=0;" parent="1" source="O-F3Ail7RcBTmuWhiVfL-25" target="O-F3Ail7RcBTmuWhiVfL-6" edge="1">
          <mxGeometry relative="1" as="geometry" />
        </mxCell>
        <mxCell id="O-F3Ail7RcBTmuWhiVfL-25" value="International compendium of BIM standards" style="rounded=1;whiteSpace=wrap;html=1;fillColor=#d5e8d4;strokeColor=#82b366;strokeWidth=3;" parent="1" vertex="1">
          <mxGeometry x="505" y="470" width="120" height="60" as="geometry" />
        </mxCell>
        <mxCell id="2TjgyCzb8Htl5xwf5OyU-28" style="edgeStyle=orthogonalEdgeStyle;rounded=0;orthogonalLoop=1;jettySize=auto;html=1;exitX=0.5;exitY=1;exitDx=0;exitDy=0;entryX=0.5;entryY=0;entryDx=0;entryDy=0;" parent="1" source="O-F3Ail7RcBTmuWhiVfL-26" target="O-F3Ail7RcBTmuWhiVfL-23" edge="1">
          <mxGeometry relative="1" as="geometry" />
        </mxCell>
        <mxCell id="O-F3Ail7RcBTmuWhiVfL-26" value="National Fire Regulations" style="rounded=1;whiteSpace=wrap;html=1;fillColor=#d5e8d4;strokeColor=#82b366;strokeWidth=3;" parent="1" vertex="1">
          <mxGeometry x="505" y="200" width="120" height="60" as="geometry" />
        </mxCell>
        <mxCell id="2TjgyCzb8Htl5xwf5OyU-35" style="edgeStyle=orthogonalEdgeStyle;rounded=1;orthogonalLoop=1;jettySize=auto;html=1;exitX=0.5;exitY=0;exitDx=0;exitDy=0;entryX=1;entryY=0.5;entryDx=0;entryDy=0;strokeWidth=1;" parent="1" source="2TjgyCzb8Htl5xwf5OyU-53" target="O-F3Ail7RcBTmuWhiVfL-33" edge="1">
          <mxGeometry relative="1" as="geometry" />
        </mxCell>
        <mxCell id="O-F3Ail7RcBTmuWhiVfL-27" value="Consumer market&lt;br&gt;roles" style="rounded=1;whiteSpace=wrap;html=1;arcSize=50;fillColor=none;strokeColor=none;fontStyle=1;fontSize=15;" parent="1" vertex="1">
          <mxGeometry x="900" y="120" width="120" height="50" as="geometry" />
        </mxCell>
        <mxCell id="2TjgyCzb8Htl5xwf5OyU-41" style="edgeStyle=orthogonalEdgeStyle;rounded=0;orthogonalLoop=1;jettySize=auto;html=1;exitX=0.5;exitY=0;exitDx=0;exitDy=0;entryX=0.5;entryY=1;entryDx=0;entryDy=0;dashed=1;" parent="1" source="O-F3Ail7RcBTmuWhiVfL-28" target="O-F3Ail7RcBTmuWhiVfL-31" edge="1">
          <mxGeometry relative="1" as="geometry" />
        </mxCell>
        <mxCell id="O-F3Ail7RcBTmuWhiVfL-28" value="Fire consultants&lt;br&gt;(High Fire&amp;nbsp;Expertise)" style="rounded=1;whiteSpace=wrap;html=1;fillColor=#fff2cc;strokeColor=#d6b656;" parent="1" vertex="1">
          <mxGeometry x="900" y="290" width="120" height="60" as="geometry" />
        </mxCell>
        <mxCell id="2TjgyCzb8Htl5xwf5OyU-40" style="edgeStyle=orthogonalEdgeStyle;rounded=0;orthogonalLoop=1;jettySize=auto;html=1;exitX=0.5;exitY=0;exitDx=0;exitDy=0;entryX=0.5;entryY=1;entryDx=0;entryDy=0;dashed=1;" parent="1" source="O-F3Ail7RcBTmuWhiVfL-29" target="O-F3Ail7RcBTmuWhiVfL-28" edge="1">
          <mxGeometry relative="1" as="geometry" />
        </mxCell>
        <mxCell id="O-F3Ail7RcBTmuWhiVfL-29" value="Developers and Planners&lt;br&gt;(Low Fire Expertise)" style="rounded=1;whiteSpace=wrap;html=1;fillColor=#fff2cc;strokeColor=#d6b656;" parent="1" vertex="1">
          <mxGeometry x="900" y="380" width="120" height="60" as="geometry" />
        </mxCell>
        <mxCell id="2TjgyCzb8Htl5xwf5OyU-42" style="edgeStyle=orthogonalEdgeStyle;rounded=0;orthogonalLoop=1;jettySize=auto;html=1;exitX=0.5;exitY=0;exitDx=0;exitDy=0;entryX=0.5;entryY=1;entryDx=0;entryDy=0;" parent="1" source="O-F3Ail7RcBTmuWhiVfL-30" target="O-F3Ail7RcBTmuWhiVfL-29" edge="1">
          <mxGeometry relative="1" as="geometry" />
        </mxCell>
        <mxCell id="O-F3Ail7RcBTmuWhiVfL-30" value="Regulators &amp;amp; Authorities&lt;br&gt;(Low-High Fire Expertise)" style="rounded=1;whiteSpace=wrap;html=1;fillColor=#fff2cc;strokeColor=#d6b656;" parent="1" vertex="1">
          <mxGeometry x="900" y="470" width="120" height="60" as="geometry" />
        </mxCell>
        <mxCell id="O-F3Ail7RcBTmuWhiVfL-31" value="Architects &amp;amp; &lt;br&gt;Building Designers&lt;br&gt;(Low Fire Expertise)&amp;nbsp;" style="rounded=1;whiteSpace=wrap;html=1;fillColor=#fff2cc;strokeColor=#d6b656;" parent="1" vertex="1">
          <mxGeometry x="900" y="200" width="120" height="60" as="geometry" />
        </mxCell>
        <mxCell id="O-F3Ail7RcBTmuWhiVfL-32" value="&lt;font style=&quot;font-size: 15px&quot;&gt;End User&lt;/font&gt;" style="rounded=1;whiteSpace=wrap;html=1;arcSize=50;fillColor=none;strokeColor=none;fontColor=#333333;fontStyle=1" parent="1" vertex="1">
          <mxGeometry x="707" y="-30" width="120" height="50" as="geometry" />
        </mxCell>
        <mxCell id="O-F3Ail7RcBTmuWhiVfL-33" value="Building owner" style="rounded=1;whiteSpace=wrap;html=1;fillColor=#f5f5f5;strokeColor=#666666;fontColor=#333333;" parent="1" vertex="1">
          <mxGeometry x="707" y="20" width="120" height="40" as="geometry" />
        </mxCell>
        <mxCell id="O-F3Ail7RcBTmuWhiVfL-34" style="edgeStyle=orthogonalEdgeStyle;rounded=0;orthogonalLoop=1;jettySize=auto;html=1;exitX=0.5;exitY=1;exitDx=0;exitDy=0;" parent="1" source="O-F3Ail7RcBTmuWhiVfL-33" target="O-F3Ail7RcBTmuWhiVfL-33" edge="1">
          <mxGeometry relative="1" as="geometry" />
        </mxCell>
        <mxCell id="WZhK_iISjF4VqVoh4DxO-8" value="" style="rounded=1;whiteSpace=wrap;html=1;fillColor=#dae8fc;strokeColor=#6c8ebf;strokeWidth=3;" parent="1" vertex="1">
          <mxGeometry x="500" y="30" width="20" height="20" as="geometry" />
        </mxCell>
        <mxCell id="WZhK_iISjF4VqVoh4DxO-9" value="FireBIM ITEA funding" style="text;html=1;strokeColor=none;fillColor=none;align=left;verticalAlign=middle;whiteSpace=wrap;rounded=0;dashed=1;fontSize=15;" parent="1" vertex="1">
          <mxGeometry x="530" y="30" width="40" height="20" as="geometry" />
        </mxCell>
        <mxCell id="gjC-1clqxjPvvHSm9kyU-12" style="edgeStyle=orthogonalEdgeStyle;rounded=0;orthogonalLoop=1;jettySize=auto;html=1;exitX=1;exitY=0.25;exitDx=0;exitDy=0;entryX=0;entryY=0.5;entryDx=0;entryDy=0;" edge="1" parent="1" source="gjC-1clqxjPvvHSm9kyU-1" target="gjC-1clqxjPvvHSm9kyU-2">
          <mxGeometry relative="1" as="geometry" />
        </mxCell>
        <mxCell id="gjC-1clqxjPvvHSm9kyU-13" style="edgeStyle=orthogonalEdgeStyle;rounded=0;orthogonalLoop=1;jettySize=auto;html=1;exitX=1;exitY=0.75;exitDx=0;exitDy=0;entryX=0;entryY=0.5;entryDx=0;entryDy=0;" edge="1" parent="1" source="gjC-1clqxjPvvHSm9kyU-1" target="gjC-1clqxjPvvHSm9kyU-4">
          <mxGeometry relative="1" as="geometry" />
        </mxCell>
        <mxCell id="gjC-1clqxjPvvHSm9kyU-1" value="National Fire Regulations" style="rounded=1;whiteSpace=wrap;html=1;fillColor=#d5e8d4;strokeColor=#82b366;strokeWidth=3;" vertex="1" parent="1">
          <mxGeometry x="60" y="330" width="120" height="60" as="geometry" />
        </mxCell>
        <mxCell id="gjC-1clqxjPvvHSm9kyU-14" style="edgeStyle=orthogonalEdgeStyle;rounded=0;orthogonalLoop=1;jettySize=auto;html=1;exitX=1;exitY=0.5;exitDx=0;exitDy=0;entryX=1;entryY=0.5;entryDx=0;entryDy=0;" edge="1" parent="1" source="gjC-1clqxjPvvHSm9kyU-2" target="gjC-1clqxjPvvHSm9kyU-4">
          <mxGeometry relative="1" as="geometry" />
        </mxCell>
        <mxCell id="gjC-1clqxjPvvHSm9kyU-16" style="edgeStyle=orthogonalEdgeStyle;rounded=0;orthogonalLoop=1;jettySize=auto;html=1;exitX=0.5;exitY=0;exitDx=0;exitDy=0;entryX=0.5;entryY=1;entryDx=0;entryDy=0;" edge="1" parent="1" source="gjC-1clqxjPvvHSm9kyU-2" target="gjC-1clqxjPvvHSm9kyU-5">
          <mxGeometry relative="1" as="geometry" />
        </mxCell>
        <mxCell id="gjC-1clqxjPvvHSm9kyU-2" value="Fire consultants&lt;br&gt;(High Fire&amp;nbsp;Expertise)" style="rounded=1;whiteSpace=wrap;html=1;fillColor=#fff2cc;strokeColor=#d6b656;" vertex="1" parent="1">
          <mxGeometry x="260" y="290" width="120" height="60" as="geometry" />
        </mxCell>
        <mxCell id="gjC-1clqxjPvvHSm9kyU-15" style="edgeStyle=orthogonalEdgeStyle;rounded=0;orthogonalLoop=1;jettySize=auto;html=1;exitX=0.5;exitY=0;exitDx=0;exitDy=0;entryX=0.5;entryY=1;entryDx=0;entryDy=0;" edge="1" parent="1" source="gjC-1clqxjPvvHSm9kyU-3" target="gjC-1clqxjPvvHSm9kyU-2">
          <mxGeometry relative="1" as="geometry" />
        </mxCell>
        <mxCell id="gjC-1clqxjPvvHSm9kyU-3" value="Developers and Planners&lt;br&gt;(Low Fire Expertise)" style="rounded=1;whiteSpace=wrap;html=1;fillColor=#fff2cc;strokeColor=#d6b656;" vertex="1" parent="1">
          <mxGeometry x="260" y="380" width="120" height="60" as="geometry" />
        </mxCell>
        <mxCell id="gjC-1clqxjPvvHSm9kyU-4" value="Regulators &amp;amp; Authorities&lt;br&gt;(Low-High Fire Expertise)" style="rounded=1;whiteSpace=wrap;html=1;fillColor=#fff2cc;strokeColor=#d6b656;" vertex="1" parent="1">
          <mxGeometry x="260" y="470" width="120" height="60" as="geometry" />
        </mxCell>
        <mxCell id="gjC-1clqxjPvvHSm9kyU-5" value="Architects &amp;amp; &lt;br&gt;Building Designers&lt;br&gt;(Low Fire Expertise)&amp;nbsp;" style="rounded=1;whiteSpace=wrap;html=1;fillColor=#fff2cc;strokeColor=#d6b656;" vertex="1" parent="1">
          <mxGeometry x="260" y="200" width="120" height="60" as="geometry" />
        </mxCell>
        <mxCell id="gjC-1clqxjPvvHSm9kyU-6" value="&lt;font style=&quot;font-size: 15px&quot;&gt;End User&lt;/font&gt;" style="rounded=1;whiteSpace=wrap;html=1;arcSize=50;fillColor=none;strokeColor=none;fontColor=#333333;fontStyle=1" vertex="1" parent="1">
          <mxGeometry x="262.5" y="-20" width="120" height="50" as="geometry" />
        </mxCell>
        <mxCell id="gjC-1clqxjPvvHSm9kyU-7" value="Building owner" style="rounded=1;whiteSpace=wrap;html=1;fillColor=#f5f5f5;strokeColor=#666666;fontColor=#333333;" vertex="1" parent="1">
          <mxGeometry x="262.5" y="30" width="120" height="40" as="geometry" />
        </mxCell>
        <mxCell id="gjC-1clqxjPvvHSm9kyU-19" value="&lt;font style=&quot;font-size: 15px&quot;&gt;NOW&lt;/font&gt;" style="rounded=1;whiteSpace=wrap;html=1;arcSize=50;fillColor=none;strokeColor=none;fontColor=#333333;fontStyle=1" vertex="1" parent="1">
          <mxGeometry x="10" y="-50" width="120" height="50" as="geometry" />
        </mxCell>
        <mxCell id="gjC-1clqxjPvvHSm9kyU-20" value="&lt;font style=&quot;font-size: 15px&quot;&gt;FUTURE&lt;/font&gt;" style="rounded=1;whiteSpace=wrap;html=1;arcSize=50;fillColor=none;strokeColor=none;fontColor=#333333;fontStyle=1" vertex="1" parent="1">
          <mxGeometry x="450" y="-50" width="120" height="50" as="geometry" />
        </mxCell>
      </root>
    </mxGraphModel>
  </diagram>
</mxfile>
